<?xml version="1.0" standalone="no"?>
<!DOCTYPE svg PUBLIC "-//W3C//DTD SVG 20010904//EN"
 "http://www.w3.org/TR/2001/REC-SVG-20010904/DTD/svg10.dtd">
<svg version="1.0" xmlns="http://www.w3.org/2000/svg"
 width="512.000000pt" height="512.000000pt" viewBox="0 0 512.000000 512.000000"
 preserveAspectRatio="xMidYMid meet">

<g transform="translate(0.000000,512.000000) scale(0.100000,-0.100000)"
fill="#000000" stroke="none">
<path d="M2325 5109 c-608 -62 -1143 -316 -1570 -744 -341 -341 -566 -738
-679 -1195 -56 -227 -70 -352 -70 -610 0 -258 14 -383 70 -610 159 -645 571
-1209 1140 -1563 518 -322 1119 -447 1722 -358 742 111 1408 555 1809 1208
279 454 411 1014 363 1538 -57 615 -309 1155 -745 1590 -213 214 -426 366
-690 495 -243 118 -478 192 -737 231 -154 23 -474 33 -613 18z m488 -244 c272
-32 531 -106 760 -219 823 -404 1335 -1248 1304 -2151 -12 -328 -72 -593 -203
-888 -139 -315 -377 -623 -659 -853 -310 -254 -716 -430 -1130 -491 -167 -24
-487 -24 -650 1 -522 79 -977 313 -1340 687 -344 356 -556 787 -631 1284 -22
147 -25 474 -6 615 73 523 286 963 645 1329 503 514 1211 768 1910 686z"/>
<path d="M3794 3930 c-112 -16 -232 -108 -279 -213 -17 -39 -62 -277 -175
-937 -83 -487 -156 -899 -161 -917 -6 -18 -24 -44 -40 -58 l-31 -25 -681 0
c-642 0 -684 -2 -723 -19 -66 -30 -91 -106 -58 -176 31 -67 7 -65 771 -65 757
0 743 -1 836 61 58 39 123 126 142 194 8 27 80 430 160 895 176 1025 160 942
195 980 l28 30 197 0 c212 0 233 4 274 56 42 54 16 154 -49 186 -29 15 -61 18
-195 17 -88 -1 -183 -5 -211 -9z"/>
<path d="M1590 3478 c-71 -27 -152 -110 -194 -198 -50 -107 -48 -169 22 -590
65 -391 74 -420 153 -499 46 -46 110 -83 174 -100 22 -5 314 -22 648 -36 563
-23 610 -24 640 -9 18 9 40 26 49 38 36 44 12 147 -42 176 -15 8 -222 17 -630
29 -544 15 -610 19 -634 35 -15 9 -31 27 -36 39 -12 28 -140 721 -140 756 0
14 9 45 19 68 16 34 27 44 58 52 25 7 264 11 704 11 l666 0 34 23 c75 50 71
180 -7 215 -18 9 -217 12 -727 11 -689 0 -703 0 -757 -21z"/>
<path d="M1976 1315 c-147 -52 -182 -248 -63 -352 67 -59 145 -67 228 -25 154
78 154 286 0 365 -60 30 -106 33 -165 12z"/>
<path d="M3052 1315 c-92 -40 -149 -126 -139 -210 11 -99 97 -183 196 -192 36
-4 58 1 101 24 155 79 155 287 1 366 -60 30 -109 34 -159 12z"/>
</g>
</svg>
